<?xml version="1.0" encoding="UTF-8"?>
<svg id="Layer_1" data-name="Layer 1" xmlns="http://www.w3.org/2000/svg" viewBox="0 0 1778.12 150">
  <defs>
    <style>
      .cls-1 {
        fill: #0c6880;
        stroke-width: 0px;
      }
    </style>
  </defs>
  <path class="cls-1" d="M.69,150h1778.04s-.6-123.84-.6-149.49c-3.55-1.16-16.8,22.51-25.4,34.49-26.25,36.61-32,44-65,60-11.32,5.49-48.52,10.95-56.63-2.01,6.43-1.16,7.98-9.48,7.25-15.1-2.6,3.77-3.7,10.3-8.59,10.46,4.71-.11,12.2-23.72,11.55-28.12-1.66,6.17-7.2,9.6-8.87,15.65-1.2,8.37-4.58,8.73-11.89,10.35.49-4.19,2.77-5.17,6.01-7.82,7.22-6.3,9.38-18.38,3.95-26.47,1.14,5.81.38,11.83-2.26,16.99-1.85-10.49-3.01-19.69,1.53-30.02-15.86,20.05,2.98,25.61-14.11,45.55-1.05-16.26,13.15-29.21,3.04-45.54,2,11.3.02,20.34-5.44,29.98-9.62-18.34.26-14.42-4.9-23.24-2.63-1.88-7.29-4.77-9.86-1.5.05-2.8-1.45-5.6-4.27-5.9,6.91-16.9-20.54-18.4-13.92-.49-2.27.69-4.38,1.9-6.55,2.89-16.34-18.6-27.87,13.53-24.65-40.63-4.58,11.35-7.63,25.01-1.29,36.45-11.36,1.7-10.62-13.98-17.88-19.64,4.81,11.1,3.92,26.74,15.56,33.59-15.16-4.63-14.14-26.64-24.79-36.73,7.26,19.68,8.35,50.17,36.69,42.43-32.71,17.46-19.17-11.81-43.86-7.7,17.87.91,13.13,27.28,35.09,17.94-9.83,22-13.18-1.36-24.72,19.48-4.32,3.17-7.55,7.33-8.45,13.05-7.46-2.25-7.62,3.36-12.26,5.4-8.71-12.44-20.39-24.56-37.27-20.98,1.48-3.11,3.84-8.53.57-11.1-2.63-1.88-7.29-4.77-9.86-1.5.05-2.8-1.45-5.6-4.27-5.9,5.94-16.51-15.58-16.8-14.84-6.06-1.85,1.99-3.02,4.7-3.45,7.42-3.25-10.68,6.48-20.81,4.47-31.78-1.71,7.74-6.84,13.52-8.76,21.16-5.46-9.64-7.44-18.69-5.44-29.98-9.15,15.4,4.51,31.17,3.04,45.55-16.98-19.69,1.65-25.75-14.11-45.55,4.54,10.34,3.38,19.53,1.53,30.02-2.63-5.16-3.4-11.18-2.26-16.99-5.43,8.09-3.26,20.17,3.95,26.47,3.24,2.65,5.52,3.64,6.01,7.82-7.34-1.63-10.69-1.97-11.89-10.35-1.67-6.05-7.2-9.48-8.87-15.65-.63,4.39,6.78,27.92,11.55,28.12-4.89-.16-5.98-6.68-8.59-10.46-.47,4.51.03,9.83,3.51,13.19-13.43,2-31.93,7.73-40.02-8.99,5.58-.32,12.71-17.28,4.05-12.13-.67,6.98-5.91,5.98-9.2,10.52-1.17-6.95,5.53-11.28,4.32-18.11-.34-3.03-4.91-3.07-4.56,0,.47,2.96-.91,5.1-2.4,7.45-1.28-4-2.09-7.67-1.03-12.68.64-3.01-3.76-4.29-4.4-1.28-3.29,8.77,2.97,16.84,2.73,25.05-.56.04-1.1.07-1.62.1.53-5.86-4.85-8.7-5.75-14.06-.59-5.19,2.48-11.28-2.24-14.87-2.38-1.81-4.66,2.35-2.3,4.14,1.33,1.01.3,5.62-.03,8.04-3.98-3.33-3.25-10.03-5.18-14.78-7.08-6.62-2.22,14.01-.12,15.93,1.63,2,2.89,3.22,3.81,5.66-5.23-2.34-10.43-4.61-10.26-11.37.08-3.09-4.48-3.09-4.56,0-1.07,15.73,16.33,11.96,20.45,21.85-5.26,5.87-9.88,16.7-18.76,18.11-14.54,6.91-9.34,12.48-27.1,3.96-10.77,11.22-17.59,7.19-31.69,4.77,9.5-2.46,7.03-14.46,4.58-21.97-2.3-2.12-8.43,2.46-11.49,3.12,9.13-6.33,4.81-22.95-7.08-11.77.52-8.53-10.14-14.61-17.16-13.87-2.6,3.92-3.49,9.08-4.9,13.62-.74-.32-1.49-.6-2.25-.87,1.5-6.08-.82-9.58-6.95-9.07.76-10.75-3.24-18.26-14.13-14.71-7.55,5.2.07,16.09,0,23.68-6.83-12.98-20.3-3.29-13.26,9.28-3.93-3.38-4.93,5.28-6.71,7.78,1.08,2.14,4.68,3.17,6.62,4.89-1.06,6.41-9.38,11.29-14.08,6.28-4.04-13.27-16.42-4.96-26.46-7.06,3.3-5.38,10.49-1.93,13.59-8.13,2.28-1.95-.97-5.33-3.23-3.39-2.93,5.53-7.72,1.81-11.56,5.78-.3-.83-.73-1.36-1.23-1.91,3.31-3.05,6.6-4.92,10.76-6.47,6.43-9.09-9.77-1.93-12.16,1.48,2.73-2.64.78-8.94-2.66-4.98-2.08,2.45-1.68,6.91-4.16,8.17-1.59-5.47,3.45-8.65,7.25-11.6,3.25-10.45-14.44,3.51-12.76,8.31-13-4.66-.65-13.81.57-23.2.63-3.01-3.77-4.3-4.4-1.28-1.22,5.81-4.35,10.72-6.52,15.95-2.91-5.42-1.88-12.39-1.77-18.52-7.25-11.19-6.19,23.22-.09,24.48-.15.79-.26,1.59-.33,2.41-9.51-16.13-17.34,7.07-36.14,3.65.35-4.61.24-8.43,1.61-13.03-3.1,1.85-4.93,5.61-5.51,9.23-3.19-10.83,6.46-20.83,4.49-31.87-1.71,7.74-6.84,13.52-8.76,21.16-5.46-9.64-7.44-18.69-5.44-29.98-10.11,16.35,4.09,29.26,3.04,45.54-16.98-19.69,1.65-25.75-14.11-45.55,4.54,10.34,3.38,19.53,1.53,30.02-2.63-5.16-3.4-11.18-2.26-16.99-5.43,8.09-3.26,20.17,3.95,26.47,3.24,2.65,5.52,3.64,6.01,7.82-7.34-1.63-10.69-1.97-11.89-10.35-1.67-6.05-7.2-9.48-8.87-15.65-.63,4.39,6.78,27.92,11.55,28.12-4.89-.16-5.98-6.68-8.59-10.46-1.02,6.16,1.81,16.45,9.46,14.99-9.84,11.76-37.8,13.12-45.82-2-4.81-13.57,7.95-23.88,5.81-30.81-7.43-3.08-6.37,9.13-9.41,12.3-3.08-3.22-2.55-11.9-7.81-12.41-.94,7.86,7.42,15.61,4.75,23.95-.6-2.27-6.38-9.67-7.01-4.71.34,5.05,4.88,7.7,6.89,11.78-5.11,1.02-7.14-8.08-12.85-5.08-2.83-13.75,1.54-29.1,12.23-37.84,2.46-3.75-1.82-6.9-4.44-3.34-11.62,18.07-4.71,10.73-11.73-1.66-6.95,8.24,5.56,11.58-2.76,35.64-5.39-5.19-1.97-18.68-11.45-18.08-3.69,9.04,7.99,17.17,9.22,25.89-14.23-8.43-32.61,38.07-42.1,27.21-4.61-4.78-18.96-4.44-23.69-8.24,8.17-1.15,13.01,1.81,19.02-6.87-4.51.49-7.87,3.48-12.78,2.45,2.41-7.68-1.38-9.03,4.43-16.81-12.68,6.47-1.43,14.42-13.75,18.66,6.65-8.45-1.62-10.32,11.91-19.48-2.25.23-4.43.78-6.53,1.82,2.03-2.41,5.09-4,7.55-6.61-8.43,1.35-13.71,6.42-14.88,15.38-4.09-9.7.36-15.21,9.64-17.69-27.14-.58-7.11,19.25-15.38,26.21-9.69,2.95,3.71-32.41-13.05-31.75,3.2-9.78,4.14-13.13,14.84-11.68,5.19,0,14.64-1.09,12.94-8.7-.59-2.61-4.4-1.5-3.82,1.11.81,3.68-18.23,2.96-21.31,5.25,26.92-27.1-8.32-9.39-4.86,8.01-3.23,10.46-3.35-4.31-8.19-6,6.36-1.76,5.7-20.73.8-10.97.81,4.91-2.01,7.56-6.01,8.28-3.07-1.45-5.94-3.11-7.05-6.93-.74-2.56-4.57-1.47-3.82,1.11.97,3.34,2.79,5.56,5.3,7.32-3.59,3.72-9.74,2.93-12.58,7.42-2.52-4.82-9.09-2.51-13.18-4.19,3.02-7.32,11.62-4.43,15.95-10.22,1.64-2.03-1.14-4.99-2.8-2.94-2.86,3.52-6.35,2.4-9.89,4.09-.99-17.55,13.04-8.3,17.26-24.69.94-2.49-2.89-3.57-3.82-1.11-.89,2.37-2.09,4.85-3.75,6.73-2.31,2.66-5.64,2.18-8.24,4.3.8-2.61,2.2-5.08,4.73-7.34,1.95-1.74-.87-4.67-2.8-2.94-10.19,8.7-3.75,21.54-10.19,31.95-2.48-2.34-3.68-5.93-2.79-10.33-5.06-9.97-5.6,11.01-.44,13.16-2.49,1.63-5,3.67-5.44,7.08-6.86-3.62-6.93-13.96-14.89-16.3-12.16-8.82,11.96-9.76,4.3-30.38-.47-2.63-4.28-1.52-3.81,1.11.96,5.38,1.88,10.36-2,14.36-3.03,2.81-7.21,7.55-5.91,11.82-6.14-2.92-11.65-7.3-8.18-15.61,1.02-2.43-2.39-4.55-3.42-2.1-8.35,22.91,20.87,18.52,24.81,34.41-11.59,1.97-11.38-8.9-20.67-12.18-2.42-.87-3.45,3.15-1.05,4.02,5.87,2.11,6.61,8.82,11.94,11.28,5.07,2.74,12.23-.59,16.8,3.3-10.03,4.92-21.3,4.29-29.52-4.07-2.25-1.26-4.25,2.33-2,3.6,17.97,19.25,41.19-8.45,34.72,17.1-5.14.44-10.52-2.13-14.3-6.01-4.72-4.85-9.22,9.19-11.87,2.83-21.52,1.19-13.65,16.57-26.66,9.16,6.38-17.26-20.06-15.79-13.4.47-2.72.29-4.16,2.98-4.11,5.68-2.48-3.14-6.96-.36-9.5,1.45-2.65,1.77-1.25,5.35-.68,7.94-6.78,1.23-16.09-.28-19.19-7.53,1.9-7.22,11.57,1.88,13.52-13.59.29-1.92-2.5-2.75-2.8-.81-1.65,11.54-6.34,5.58-11.91,10.04-.3-5.94,6.55-10.29,8.37-15.75,3.53-5.58-4.89-15.72,1.35-17.92,1.82-.43,1.05-3.38-.77-2.94-12.76,4.89,4.72,14.99-8.12,27.29,3.32-8.05.4-15.87-6.13-20.2,7.3-6.39,2.34-18.12.53-11.45,1.53,4.23-.53,6.87-2.94,9.45-4.19-5.04-7.73-1.44-1.98,2.11-2.07,2.13-3.48,5.02-3.23,8.05-2.78-4.61-9.69-6.37-8.87-12.95-.8-3.08,10.56-10.52,3.24-9.65-17.2,16.98,4.87,17.24,3.64,29.16-2.2,5.73-4.56,11.9-1.23,17.75-26.23-8.04-2.82-20.99-16.28-34.26-1.39-1.31-3.44.84-2.05,2.16,12.03,15.19-13.28,23.46,19.85,36.32-11.04,13.12-29.24-.18-42.91-1.5-10.01-3.4-13.42,4.41-23.71-3.04-10.38,4.46-15.53-7.13-18.75-15.24,2.85-4.73,9.13-1.7,11.83-7.1,1.98-1.69-.84-4.63-2.8-2.94-2.42,4.71-6.79,1.64-10.02,5.02-.26-.72-.63-1.18-1.06-1.65,2.87-2.64,5.73-4.27,9.33-5.61,5.58-7.88-8.47-1.67-10.55,1.28,2.4-2.15.58-7.79-2.31-4.32-1.8,2.13-1.46,5.99-3.61,7.09-1.38-4.75,2.99-7.5,6.29-10.06,2.58-8.93-12.46,2.96-11.07,7.21-12.42-4.57,1.9-14.15.89-23.54-2.96-8.86-7.26,13.93-9.87,16.15-3.37-2.35.99-24.97-5.5-16.07-2,11.76,3.31,20.53,4.75,31.28-3.27-.03-5.37-2.33-6.05-5.52-.82-2.52-4.65-1.44-3.82,1.11,1.78,9.23,12.64,7.87,16.57,15.42-4.84,1.2-8.04,9.1-12.02,12.58-5.31-13.08-11.8-6.8-19.67-.55,4.45-9.35,11.31-18.53-2.82-21.69,4.82-17.89-13.89-12.96-15.7-5.89.07-3.73-1.92-7.44-5.68-7.84,8.67-23.54-27.06-24.06-18.51-.65-19.92,4.9-9.96,16.54-3.9,29.96-5.53-3.18-11.39-11.18-17.86-10.1-4.54,2.5-10.15,7.91-9.32,13.71-6.31-4.5-7-16.51-14.52-18.5,14.9-6.59,8.41-13.17,12.21-26.65-3.7,2.21-5.88,6.7-6.57,11.02-3.8-12.92,7.71-24.85,5.35-38.01-2.04,9.23-8.16,16.13-10.45,25.25-6.52-11.5-8.88-22.29-6.5-35.77-12.15,20.4,4.93,34.37,3.63,54.34-20.69-24.54,2.41-29.6-16.83-54.33,5.41,12.34,4.03,23.3,1.82,35.82-3.14-6.15-4.06-13.34-2.69-20.27-6.48,9.65-3.89,24.06,4.72,31.57,3.87,3.17,6.59,4.35,7.17,9.33-8.98-2.11-12.55-2.06-14.19-12.35-1.99-7.22-8.6-11.31-10.58-18.67-.95,6.17,2.36,11.85,4.95,17,1.58,5.76,2.15,14.21,8.83,16.55-5.83-.19-7.13-7.97-10.24-12.48-1.03,7.05,1.53,18.21,10.06,18.09,3.9-.4,4.78-2.18,8.19-1.15-5.36,2.65-10.65,4.47-14.89,9.45-3.44,2.41-5.18,11.91-8.72,14.14-8.15,5.13-20.14-16.27-28.23-11.02,6.23-8.28,12.48-9.8,4.66-21.21-.62,5.81,4.83,12.21-3.04,13.97,1.43-7.49-2.85-13.66-4.93-20.43-2.07,7.06,2.36,14.15,1.12,21.06-1.45-10.27-10.96-17.62-8.74-29.14-7.87,12.85,5.73,22.12,5.86,34.35-11.08-13.72-14.55-11.66-11.92-32.75-12.83,28.99,7.87,24.47,10.64,38.4-2.57-2.42-7.36-2.91-10.53-2.77-4.68-2.48-6.15-10.41-12.12-11.75,7.08,8.56,5.94,18.85,19.84,16.95-12.44,6.47-24.11,4.38-36.37-1.61-13.7,5.81-14.27,9.46-22.57-5.56-2.09-5.52-1.05-14.52-8.22-15.9-2.04-10.49,10.26-16.75,8.68-27.32-9.19-1.66-5.81,11.36-10.7,15.75-7.36-20.97,3.65-24.1-2.45-31.59-2.49,2.42-2.25,6.53-3.17,9.96-2.83,4.31-5.87-12.77-10.88-9.61-1.01.68-1.2,2.11-.71,3.27,11.67,9.75,12.97,24.9,11.31,39.46-3.1,3.48-6.37-.32-10.01,2.72-4.71-12.53,6.43-21.17,4.95-28.22-6.68-2.75-5.59,8.1-8.34,10.9-2.73-2.85-2.26-10.55-6.92-11-.84,6.96,6.58,13.84,4.21,21.23-1.05-2.14-3.67-6.95-6.06-5.12-1.07,5.93,7.38,9.19,6.61,14.97-1.24.61-3.09,1.34-4.36,1.47-2.03,1.95-1.48-1.96-5.36-2.55-.8-.51-2.12-1.51-2.42-2.29-1.64-14.57-.09-29.41,11.42-39.23.4-1.14.23-2.73-.98-3.17-5.53-1.43-6.03,9.42-10.03,10.51-2.25-2.59-.69-9.25-4.01-10.64-4.44,4.1.39,10.59.86,15.48.45,5.4-3.12,10.65-3.11,15.93-5.64-7.09-1.61-13.31-8.01-15.94-2.68-.99-3.23.82-2.63,3.23-4.79,2.04-4.46,8.23-7.22,11.84-2.74-2.79-1.67-13.66-8.34-10.9-2.46,6.22,10.3,13.18,4.35,31.24-3.88,8.03-6.3,10.62-7.66,21.82-6.73,1.78-12.74-5.12-19.61-4.94,9.15-4.84,22.21-10.96,19.11-24.48,1.48,10.9-17.3,24.16-25.02,23.72,6.1-17.33,25.42-9.98,19.14-38.13,1.81,28.21-13.74,18.44-20.34,36.02-4.33-15.29,6.94-16.77,14.24-24.56-5.93,4.36-15.49,5.64-16.77,14.8.73-12.79,14.95-19.41,12.86-36,.37,16.64-19.83,25.31-13.89,41.44-5.46-10.79,7.02-30.64-11.25-39.71,10.49,8.29,9.79,22.82,6.9,34.84-3.67-6.81-11.25-13.75-6.11-22.02-6.12,6.26-1.44,14.99,2.77,20.74-10.77-5.22-10.16-19.46-8.04-29.99-11.01,30.47,10.35,25.77,11.84,42.63-23.26-7.05-4.63-28.48-25.73-34.36,17.84,7.53,1.61,28.79,22.41,34.94-18,0-35.99,8.58-53.67,3.64-10.44-2.81-21.18-.53-29.24-9.48-2.73-.88-7.64,3.05-10.37,2.16-4.72-1.53-7.61-7.14-12.03-9.32,30.07-16.52,4.57-25.63,26.08-38.15-22.23,7.74-.78,23.16-26.15,35.61,2.04-18.67,23.19-13.2,12.27-43.88,2.12,10.52,2.72,24.77-8.04,29.99,4.21-5.75,8.89-14.49,2.77-20.74,5.13,8.28-2.44,15.2-6.11,22.02-2.89-12.02-3.59-26.56,6.9-34.84-9.83,7.45-11.74,11.06-10.85,27.86-5.77-9.57-13.45-17.5-14.29-29.6-2.06,16.69,12.1,23.13,12.86,36-1.28-9.17-10.83-10.44-16.77-14.8,7.25,7.76,18.57,9.25,14.24,24.56-6.56-17.52-22.18-7.88-20.34-36.02-8.09,29.03,18.46,21.17,18.03,40.08-9.46-7.87-23.4-10.09-23.92-25.67-2.95,17.55,12.51,17.88,20.6,26.55-5.66,2.51-11.21,5.28-16.83,7.88.17-1.37.14-2.75-.11-4.07.73,5.14-3.88,5.84-7.55,7.69,5.41-3.97,5.04-11.92,4.06-18.03,3.8,20.6-27.05,30.47-3.62,8.22-3.8,3.13-9.45,4.55-9.96,10.62.68-9.03,9.24-15.81,7.64-25.82.38,11.34-11.81,18.52-8.25,29.73-3.12-8.15,3.92-22.37-6.68-28.48,6.45,6.31,5.7,16.61,4.1,24.99-2.28-4.98-6.66-10.04-3.63-15.79-3.62,4.51-.91,10.62,1.64,14.88-6.84-4.4-5.82-14.2-4.78-21.51-2.14,6.78-3.21,16.59,2.54,21.85,1.89,1.46,4.38,2.53,4.02,5.4-12.15,4.36-3.33-20.21-14.82-21.32,9.64,4.31,2.24,18.06,10.49,23.41-15.51,9.49-12.9-1.2-25.32-5.63,11.25-5.85,13.04-10.1,1.73-18.01-5.29-.88-10.07,5.66-14.6,8.26,5.03-10.56,12.8-20.89-3.19-24.48,7.25-19.44-22.64-17.87-15.13.53-3.07.33-4.7,3.36-4.64,6.41-2.8-3.54-7.86-.41-10.72,1.64-4.01,3.58-.42,10.82,2.19,14.41C-13.55,105.84,3.76,89.36.69,150Z"/>
</svg>